<svg xmlns="http://www.w3.org/2000/svg" xmlns:xlink="http://www.w3.org/1999/xlink" width="159" height="40" viewBox="0 0 159 40">
  <defs>
    <rect id="chrome-web-store-a" width="159" height="40" rx="3"/>
  </defs>
  <g fill="none" fill-rule="evenodd" opacity=".9">
    <mask id="chrome-web-store-b" fill="#fff">
      <use xlink:href="#chrome-web-store-a"/>
    </mask>
    <use fill="#000" xlink:href="#chrome-web-store-a"/>
    <path fill="#FFF" fill-rule="nonzero" d="M20.45911,9.00047905 C22.5123602,8.9832329 24.4413742,9.4964656 26.2461521,10.5401772 C28.2307371,11.6864075 29.736422,13.2775248 30.7632067,15.3135288 L21.2418936,14.8129113 C19.8730602,14.7359424 18.6155282,15.0546768 17.4692979,15.7691147 C16.3230675,16.4835525 15.5318205,17.4651459 15.0955567,18.7138951 L11.5538677,13.2732132 C12.6489984,11.9130028 13.9791877,10.8629038 15.5444357,10.1229161 C17.1096837,9.38292844 18.7479084,9.00862307 20.45911,9 L20.45911,9.00047905 Z M10.8736028,14.1973195 L15.1980755,22.7049422 C15.8141463,23.9281415 16.716695,24.8563996 17.9057213,25.4897167 C19.0947477,26.1230337 20.3479681,26.315456 21.6653825,26.0669837 L18.7138952,31.8540258 C16.9001748,31.5716999 15.253327,30.8979822 13.7733517,29.8328726 C12.2933763,28.7677631 11.1278239,27.4161757 10.2766943,25.7781106 C9.42556477,24.1400456 9,22.3799799 9,20.4979138 C9,18.2137567 9.62453426,16.1135587 10.8736028,14.1973196 Z M31.2250204,16.3660231 C31.7213263,17.6492646 31.9758667,18.977378 31.9886417,20.3503633 C32.0014166,21.7233486 31.7939837,23.03214 31.366343,24.2767373 C30.9387023,25.5213346 30.2843067,26.6848111 29.403156,27.7671668 C28.5220054,28.8495225 27.4698304,29.7456837 26.2466311,30.4556503 C24.2789729,31.593577 22.1489135,32.1026578 19.8564527,31.9828929 L25.0532932,23.9888224 C25.8060558,22.8681418 26.1589632,21.6256205 26.1120153,20.2612582 C26.0650675,18.896896 25.6094816,17.7099455 24.7452578,16.7004069 L31.2250204,16.3660231 Z M20.4974347,16.6227992 C21.5666962,16.6227992 22.4799438,17.0014161 23.2371776,17.7586499 C23.9944114,18.5158838 24.3730284,19.4291314 24.3730284,20.4983928 C24.3730284,21.5676542 23.9944114,22.4809019 23.2371776,23.2381357 C22.4799438,23.9953695 21.5666962,24.3739864 20.4974347,24.3739864 C19.4281733,24.3739864 18.5149257,23.9953695 17.7576919,23.2381357 C17.000458,22.4809019 16.6218411,21.5676542 16.6218411,20.4983928 C16.6218411,19.4291314 17.000458,18.5158838 17.7576919,17.7586499 C18.5149257,17.0014161 19.4281733,16.6227992 20.4974347,16.6227992 Z" mask="url(#chrome-web-store-b)"/>
    <text fill="#FFF" font-family="AvenirNext-Regular, Avenir Next" font-size="12" letter-spacing="-.4" mask="url(#chrome-web-store-b)">
      <tspan x="38" y="16">Available in th</tspan> <tspan x="109.328" y="16">e</tspan>
    </text>
    <text fill="#FFF" font-family="AvenirNext-DemiBold, Avenir Next" font-size="14" font-weight="500" letter-spacing="-.467" mask="url(#chrome-web-store-b)">
      <tspan x="38" y="32">Chrome Web Store</tspan>
    </text>
  </g>
</svg>
